<svg width="180" height="180" viewBox="0 0 180 180" fill="none" xmlns="http://www.w3.org/2000/svg">
<path d="M4.90471 24.5704C0 34.1965 0 46.7976 0 72V108C0 133.202 0 145.804 4.90471 155.43C9.21901 163.897 16.1031 170.781 24.5704 175.095C34.1965 180 46.7976 180 72 180H108C133.202 180 145.804 180 155.43 175.095C163.897 170.781 170.781 163.897 175.095 155.43C180 145.804 180 133.202 180 108V72C180 46.7976 180 34.1965 175.095 24.5704C170.781 16.1031 163.897 9.21901 155.43 4.90471C145.804 0 133.202 0 108 0H72C46.7976 0 34.1965 0 24.5704 4.90471C16.1031 9.21901 9.21901 16.1031 4.90471 24.5704Z" fill="#FF4B34"/>
<path d="M111.789 57.7106H126.076V87.9669H139.524V133.351H126.079L126.08 147.639L89.5473 147.639V133.351H105.905L105.938 101.636H76.4896V147.639L40.4766 147.635V101.636H52.957V69.4769H76.4896V40.3827L98.3414 40.3827V23.8896H111.789V57.7106Z" fill="white"/>
</svg>
